<?xml version="1.0" standalone="no"?><svg xmlns="http://www.w3.org/2000/svg" viewBox="0 0 1440 320"><path fill="#0bacad" fill-opacity="1" d="M0,64L36.9,128L73.8,192L110.8,128L147.7,288L184.6,160L221.5,160L258.5,160L295.4,160L332.3,96L369.2,192L406.2,288L443.1,288L480,32L516.9,320L553.8,128L590.8,128L627.7,128L664.6,256L701.5,192L738.5,256L775.4,288L812.3,64L849.2,288L886.2,224L923.1,128L960,320L996.9,224L1033.8,192L1070.8,224L1107.7,64L1144.6,192L1181.5,0L1218.5,192L1255.4,256L1292.3,224L1329.2,256L1366.2,128L1403.1,288L1440,224L1440,320L1403.1,320L1366.2,320L1329.2,320L1292.3,320L1255.4,320L1218.5,320L1181.5,320L1144.6,320L1107.7,320L1070.8,320L1033.8,320L996.9,320L960,320L923.1,320L886.2,320L849.2,320L812.3,320L775.4,320L738.5,320L701.5,320L664.6,320L627.7,320L590.8,320L553.8,320L516.9,320L480,320L443.1,320L406.2,320L369.2,320L332.3,320L295.4,320L258.5,320L221.5,320L184.6,320L147.7,320L110.8,320L73.8,320L36.9,320L0,320Z"></path></svg>